<svg width="57" height="71" viewBox="0 0 57 71" fill="none" xmlns="http://www.w3.org/2000/svg">
<path d="M56.0858 0.170588C56.1102 0.536133 56.1833 0.852938 56.1833 1.19411C56.1833 19.3495 56.1833 37.5293 56.1589 55.6847C56.1589 56.7082 56.0127 57.7317 55.8665 58.7309C55.1598 62.9956 52.7472 65.9199 48.7993 67.6258C45.2413 69.1611 41.5128 69.7216 37.6867 69.9409C37.0287 69.9653 36.7363 69.7216 36.6876 69.088C36.4926 66.8947 36.1027 64.7258 36.1027 62.5325C36.0296 52.3704 36.0783 42.2083 36.0783 32.0461C36.0783 31.5587 36.0783 31.0469 36.0783 30.5352C39.1976 30.7058 39.9287 28.0982 39.9531 25.0033C39.9531 22.9075 39.4657 20.8117 39.1733 18.7159C39.0027 17.473 38.3447 16.5957 37.0775 16.3033C36.2733 16.1083 36.054 15.6453 36.054 14.8655C36.1027 12.1117 36.0783 9.38232 36.054 6.62854C36.054 6.0193 36.1514 5.60502 36.8338 5.41006C43.0724 3.67981 49.2867 1.9252 55.5253 0.170588C55.6472 0.121848 55.8177 0.170588 56.0858 0.170588Z" fill="#E41F1A"/>
<path d="M0.084252 0C3.05735 0.828568 5.76238 1.58403 8.46741 2.33949C12.0254 3.33864 15.559 4.36217 19.117 5.31258C19.9699 5.53191 20.2136 5.94619 20.2136 6.77476C20.1649 10.3815 20.0674 13.9882 20.238 17.5949C20.3354 19.6907 19.2144 20.6167 17.6791 21.494C16.9237 20.105 17.1674 19.1546 18.3859 18.3016C19.3607 17.6193 19.2632 16.6201 19.0438 15.6453C18.6783 14.11 18.0203 13.2815 16.8506 13.2084C14.9497 13.0865 13.4145 13.647 13.4876 16.0352C13.5119 16.9613 13.317 17.9117 13.2195 18.8377C12.9758 21.4697 12.7321 24.1016 12.4884 26.9041C11.1724 26.7335 9.58842 26.4655 7.95565 26.3192C7.517 26.2705 6.81028 26.4654 6.61532 26.7823C6.1523 27.5377 5.12877 28.1226 5.73801 29.3411C9.05229 36.0184 12.3422 42.6956 15.6565 49.3729C15.8027 49.6897 16.2413 49.8603 16.5338 50.0797C16.6313 49.7141 16.8749 49.3242 16.8018 48.983C16.0951 45.5225 15.3153 42.0864 14.5842 38.6259C14.4867 38.2116 14.438 37.7973 14.4867 37.31C15.6321 38.2847 17.338 38.6747 17.5573 40.478C17.6791 41.4528 18.4102 41.5015 19.0926 41.5259C19.9455 41.5503 20.2136 41.9158 20.2136 42.7688C20.1649 45.7419 20.2136 48.7393 20.1892 51.7124C20.1892 54.1737 21.0178 56.1721 22.943 57.8048C26.769 61.0704 30.4976 64.4334 34.2261 67.772C34.811 68.2838 35.2253 68.9905 35.8589 69.7703C35.2984 69.9166 35.0547 70.014 34.811 70.014C28.2312 69.8678 21.627 69.8434 15.0716 69.551C12.0254 69.4292 9.1254 68.4544 6.42036 67.0409C2.52122 64.9939 0.547276 61.6552 0.27921 57.3905C0.0355134 53.6376 0.0598809 49.8603 0.0598809 46.1074C0.0598809 31.973 0.0842535 17.863 0.108623 3.72855C0.0842535 2.55881 0.084252 1.38907 0.084252 0Z" fill="#E41F1A"/>
<path d="M16.3632 16.8882C16.5338 19.0571 16.7288 21.3479 16.8994 23.5168C17.9716 22.542 19.312 21.4697 20.4574 20.2269C21.7977 18.7647 23.138 17.5462 25.4044 18.2042C25.4044 18.0823 25.4288 17.9849 25.4288 17.863C24.6733 17.4 23.8935 16.9126 22.9674 16.3521C22.6994 15.0605 22.4069 13.4521 20.9204 12.2093C21.6515 10.6009 22.5288 8.91935 24.5027 8.21263C25.8918 7.70087 27.4758 8.31012 28.2556 9.65045C28.8161 10.6252 29.2304 11.6975 29.6691 12.7454C30.522 14.7437 31.7892 16.0353 34.1287 16.2059C35.2254 16.3034 36.3464 16.7664 37.3212 17.2781C37.8085 17.5462 38.2228 18.2773 38.3203 18.8622C38.6859 20.8605 39.1001 22.8832 39.1245 24.9058C39.1489 26.2462 38.6615 27.6596 38.1985 28.9512C37.906 29.7798 37.0531 29.9747 36.2002 29.5848C35.664 29.3411 35.1279 29.0487 34.6892 28.6831C32.106 26.5874 30.0346 24.0285 28.3287 21.1773C27.9632 20.5681 27.7195 19.4958 28.0363 19.0328C28.4506 18.3748 29.4985 17.6681 30.1808 17.7655C30.9363 17.863 31.6187 18.7891 32.1548 19.4958C32.2766 19.6664 31.7405 20.3731 31.5212 20.8117C31.3506 20.8605 31.1556 20.9092 30.985 20.958C30.7657 20.5193 30.5708 20.0563 30.3514 19.6176C30.717 21.8596 33.1052 24.7109 35.664 26.4168C35.2497 25.4176 34.6649 24.4185 34.4455 23.3462C34.2262 22.2252 34.3968 21.0554 34.1531 19.837C33.9825 21.2017 33.8119 22.5664 33.5926 24.321C32.8371 23.1269 32.2523 22.1764 31.5943 21.1286C32.8615 20.6412 33.1539 19.8857 32.496 18.7891C31.5699 17.2782 30.3027 16.6689 29.1086 17.205C27.4271 17.9605 26.7204 19.2765 27.5733 20.9092C28.5724 22.8588 29.8884 24.6378 31.1069 26.4411C31.8136 27.489 32.6178 28.4395 33.3245 29.4873C34.1044 30.6327 34.275 31.8512 33.7632 33.1915C33.0321 35.0436 32.9834 36.8714 33.4951 38.8209C34.0313 40.8923 34.2018 43.0612 34.5918 45.1814C34.738 46.01 34.4943 46.5461 33.7632 46.8873C32.7884 47.3016 32.6909 47.9839 32.8371 48.9587C33.7632 54.6612 34.6161 60.3637 35.4691 66.0662C35.5422 66.4561 35.5665 66.8704 35.5909 67.2847C35.4934 67.3091 35.396 67.3334 35.3228 67.3578C34.543 65.7981 33.7388 64.2628 32.959 62.7032C30.5951 57.9998 28.2313 53.3209 25.843 48.6419C25.5019 47.9595 24.9901 47.3016 24.4052 46.8629C23.333 46.0587 22.8699 45.1327 22.8456 43.7923C22.7968 41.0873 22.7237 41.0629 20.0187 40.9411C18.9708 40.8923 18.1666 40.673 18.0204 39.4545C17.996 39.2108 17.8254 38.9428 17.6792 38.7234C17.5817 38.5772 17.3868 38.4798 17.2162 38.3579C15.949 37.3344 14.6574 36.3352 13.1221 35.4335C13.9506 39.284 14.8036 43.1587 15.6322 47.0091C15.559 47.0335 15.4859 47.0822 15.4128 47.1066C15.2422 46.8385 15.0473 46.5948 14.9254 46.3024C12.1717 40.6974 9.44226 35.0924 6.66412 29.5117C6.27421 28.7075 6.37169 28.1226 6.93219 27.6353C7.29773 27.2941 7.93134 27.0504 8.41874 27.0748C9.78344 27.1722 11.1238 27.4647 12.4885 27.6596C12.9028 27.7084 13.317 27.7327 13.8532 27.7571C13.7557 27.1235 13.6338 26.6361 13.6338 26.1487C13.6095 24.321 13.5607 22.4689 13.6826 20.6412C13.7801 18.9597 14.1456 17.3025 14.2918 15.6454C14.3893 14.5975 14.9011 14.1101 15.8759 13.9395C16.9237 13.7689 17.7523 14.0126 18.1666 15.0849C18.2641 15.3286 18.3128 15.621 18.3859 15.8647C18.6053 16.5958 18.6296 17.4 17.8498 17.6681C17.4842 17.8143 16.9237 17.205 16.3632 16.8882ZM22.8212 31.6319C24.6002 28.7075 24.4296 26.0756 22.6506 24.0529C22.1632 24.6865 21.7733 25.5151 21.1153 25.9294C19.8725 26.7092 18.4834 27.2697 17.1431 27.9033C16.7044 28.0983 16.2414 28.2201 15.7784 28.3663C15.7784 28.4638 15.8027 28.5369 15.8027 28.6344C18.1422 29.6336 20.4573 30.6084 22.8212 31.6319Z" fill="black"/>
<g filter="url(#filter0_f_21_432)">
<path d="M20.0917 27.6597C20.0917 28.3664 20.0917 28.9025 20.0917 29.6092C19.3119 29.2924 18.6539 29.0244 17.9959 28.7807C17.9959 28.6832 17.9716 28.5857 17.9716 28.4882C18.6295 28.2202 19.2875 27.9765 20.0917 27.6597Z" fill="#E41F1A"/>
</g>
<path d="M20.0918 27.6597C20.0918 28.3664 20.0918 28.9025 20.0918 29.6092C19.312 29.2924 18.654 29.0244 17.9961 28.7807C17.9961 28.6832 17.9717 28.5857 17.9717 28.4882C18.6297 28.2202 19.2876 27.9765 20.0918 27.6597Z" fill="#E41F1A"/>
<defs>
<filter id="filter0_f_21_432" x="10.1733" y="19.8614" width="17.7167" height="17.546" filterUnits="userSpaceOnUse" color-interpolation-filters="sRGB">
<feFlood flood-opacity="0" result="BackgroundImageFix"/>
<feBlend mode="normal" in="SourceGraphic" in2="BackgroundImageFix" result="shape"/>
<feGaussianBlur stdDeviation="3.89915" result="effect1_foregroundBlur_21_432"/>
</filter>
</defs>
</svg>
